HIERARCHY
ROOT Hips
{
	OFFSET 0.00000 0.00000 0.00000
	CHANNELS 6 Xposition Yposition Zposition Zrotation Yrotation Xrotation 
	JOINT LHipJoint
	{
		OFFSET 0 0 0
		CHANNELS 3 Zrotation Yrotation Xrotation
		JOINT LeftHip
		{
			OFFSET 1.57338 -1.94743 0.52196
			CHANNELS 3 Zrotation Yrotation Xrotation
			JOINT LeftKnee
			{
				OFFSET 2.60333 -7.15259 0.00000
				CHANNELS 3 Zrotation Yrotation Xrotation
				JOINT LeftAnkle
				{
					OFFSET 2.77855 -7.63400 0.00000
					CHANNELS 3 Zrotation Yrotation Xrotation
					JOINT LeftToe
					{
						OFFSET 0.19847 -0.54529 2.28466
						CHANNELS 3 Zrotation Yrotation Xrotation
						End Site
						{
							OFFSET 0.00000 -0.00000 1.17993
						}
					}
				}
			}
		}
	}
	JOINT RHipJoint
	{
		OFFSET 0 0 0
		CHANNELS 3 Zrotation Yrotation Xrotation
		JOINT RightHip
		{
			OFFSET -1.61527 -1.94743 0.52196
			CHANNELS 3 Zrotation Yrotation Xrotation
			JOINT RightKnee
			{
				OFFSET -2.53829 -6.97390 0.00000
				CHANNELS 3 Zrotation Yrotation Xrotation
				JOINT RightAnkle
				{
					OFFSET -2.80762 -7.71387 0.00000
					CHANNELS 3 Zrotation Yrotation Xrotation
					JOINT RightToe
					{
						OFFSET -0.30536 -0.83898 2.28801
						CHANNELS 3 Zrotation Yrotation Xrotation
						End Site
						{
							OFFSET -0.00000 -0.00000 1.21323
						}
					}
				}
			}
		}
	}
	JOINT lowerback
	{
		OFFSET 0 0 0
		CHANNELS 3 Zrotation Yrotation Xrotation
		JOINT Chest
		{
			OFFSET -0.04381 1.99497 -0.19778
			CHANNELS 3 Zrotation Yrotation Xrotation
			JOINT Chest2
			{
				OFFSET -0.01959 2.01295 -0.04372
				CHANNELS 3 Zrotation Yrotation Xrotation
				JOINT lowerneck
				{
					OFFSET 0 0 0
					CHANNELS 3 Zrotation Yrotation Xrotation
					JOINT Neck
					{
						OFFSET -0.05459 1.76913 0.09708
						CHANNELS 3 Zrotation Yrotation Xrotation
						JOINT Head
						{
							OFFSET 0.09461 1.77368 -0.11172
							CHANNELS 3 Zrotation Yrotation Xrotation
							End Site
							{
								OFFSET 0.03812 1.78157 -0.04834
							}
						}
					}
				}
				JOINT LeftCollar
				{
					OFFSET 0 0 0
					CHANNELS 3 Zrotation Yrotation Xrotation
					JOINT LeftShoulder
					{
						OFFSET 3.50922 1.24034 -0.28866
CHANNELS 3 Zrotation Xrotation Yrotation
						JOINT LeftElbow
						{
OFFSET 0 -5.401880 0.000000
CHANNELS 3 Zrotation Xrotation Yrotation
							JOINT LeftWrist
							{
OFFSET 0 -3.685590 0.000000
CHANNELS 3 Zrotation Xrotation Yrotation
								JOINT lhand
								{
									OFFSET 0 0 0
CHANNELS 3 Zrotation Xrotation Yrotation
									JOINT LFingers
									{
OFFSET 0 -0.617530 0.000000
CHANNELS 3 Zrotation Xrotation Yrotation
										End Site
										{
OFFSET 0 -0.497870 0.000000
										}
									}
								}
								JOINT LThumb
								{
OFFSET 0 0.000000 0.000000
CHANNELS 3 Zrotation Xrotation Yrotation
									End Site
									{
OFFSET 0 -0.505470 0.505470
									}
								}
							}
						}
					}
				}
				JOINT RightCollar
				{
					OFFSET 0 0 0
					CHANNELS 3 Zrotation Yrotation Xrotation
					JOINT RightShoulder
					{
						OFFSET -2.95373 1.39649 -0.27346
CHANNELS 3 Zrotation Xrotation Yrotation
						JOINT RightElbow
						{
OFFSET 0 -6.106700 -0.000000
CHANNELS 3 Zrotation Xrotation Yrotation
							JOINT RightWrist
							{
OFFSET 0 -3.630520 0.000000
CHANNELS 3 Zrotation Xrotation Yrotation
								JOINT rhand
								{
									OFFSET 0 0 0
CHANNELS 3 Zrotation Xrotation Yrotation
									JOINT RFingers
									{
OFFSET 0 -0.583850 0.000000
CHANNELS 3 Zrotation Xrotation Yrotation
										End Site
										{
OFFSET 0 -0.470710 0.000000
										}
									}
								}
								JOINT RThumb
								{
OFFSET 0 0.000000 0.000000
CHANNELS 3 Zrotation Xrotation Yrotation
									End Site
									{
OFFSET 0 -0.477900 0.477900
									}
								}
							}
						}
					}
				}
			}
		}
	}
}
MOTION
Frames: 11
Frame Time: 0.008333333333333333
4.101900 17.518100 -3.866400 7.284200 -41.440300 -4.245700 0.000000 0.000000 0.000000 -15.478400 -10.062600 -18.606700 6.363800 14.771800 46.424800 1.473200 -5.669000 -21.796400 0.389000 -4.004900 -11.090500 0.000000 0.000000 0.000000 11.242500 19.886900 -10.254100 -7.815200 -15.981600 51.894300 -3.174100 -3.898200 -35.205300 -0.628100 5.071300 -14.112100 -3.902000 0.047800 10.194900 -0.648000 -0.407900 2.158500 1.577000 -0.183200 -3.444600 -5.733700 1.550200 -10.283000 3.977800 2.511700 7.825800 2.303400 1.285500 3.887400 0.000000 -0.000000 0.000000 7.615700 -6.589400 -21.565400 144.439100 -45.208500 104.790000 29.276000 3.245600 -17.714600 0.000000 0.000000 0.000000 -7.125000 0.000000 0.000000 1.276100 50.087900 -0.160100 0.000000 -0.000000 0.000000 -16.870400 -3.738100 50.635700 -108.045400 -58.733100 -75.561300 -33.633000 -6.430100 -7.767000 0.000000 0.000000 0.000000 7.125000 0.000000 -0.000000 -4.899900 20.691900 -2.862800
4.286229 17.665735 -3.620950 7.759229 -44.671501 -5.599687 0.000000 0.000000 0.000000 -16.283303 -5.180901 -20.086170 7.023062 15.351214 48.961384 1.057954 -5.203220 -18.399302 1.041116 -6.488907 -18.209861 0.000000 0.000000 0.000000 9.672015 20.441016 -9.097661 -7.376907 -15.641185 50.285618 -2.601227 -1.694759 -31.153234 -0.805106 5.726333 -15.992478 -2.341889 0.726538 10.496903 -0.118337 0.669644 2.297760 1.107389 0.337037 -3.515372 -3.920567 3.776313 -10.166158 2.640863 5.357429 8.608139 1.791011 2.661167 4.085044 0.000000 0.000000 0.000000 4.423924 -4.640853 -22.503011 143.485439 -45.863663 104.109221 28.439001 4.908119 -17.647771 0.000000 0.000000 0.000000 -7.125000 0.000000 0.000000 0.448655 49.869279 -0.053871 0.000000 0.000000 0.000000 -18.013923 -7.133341 50.673698 -108.196279 -58.710095 -75.690076 -28.259064 -5.743627 -6.144489 0.000000 0.000000 0.000000 7.125000 0.000000 0.000000 -1.125519 23.011706 -0.596487
4.627595 18.171552 -3.424602 7.522710 -49.148340 -5.625298 0.000000 0.000000 0.000000 -14.671204 0.002717 -25.623943 8.235819 16.289935 53.407587 -0.050378 -5.775262 -2.299667 0.976434 -6.290361 -17.629399 0.000000 0.000000 0.000000 5.634216 20.212480 -11.616190 -6.722527 -15.093555 47.816688 -0.942031 5.743115 -17.314672 -1.043706 6.490131 -18.215842 -0.129124 1.432258 12.190443 1.014202 1.873070 2.735968 0.843405 0.907404 -4.002174 -2.009742 5.648415 -9.125038 -0.029215 7.817051 6.483572 0.804011 3.814456 3.643312 0.000000 0.000000 0.000000 2.829599 -4.019249 -24.093530 147.861639 -42.656050 107.165097 28.477506 4.921283 -17.246858 0.000000 0.000000 0.000000 -7.125000 0.000000 0.000000 0.550154 49.431226 -0.060121 0.000000 0.000000 0.000000 -18.601244 -10.869843 49.085028 -127.336577 -54.008000 -91.682754 -24.224036 -5.558361 -7.060629 0.000000 0.000000 0.000000 7.125000 0.000000 0.000000 1.871136 22.246720 1.024165
4.860913 18.305620 -3.187191 6.228307 -51.260743 -5.672619 0.000000 0.000000 0.000000 -12.039659 1.713192 -26.937331 8.101825 16.193131 52.927726 0.044064 2.528130 -5.747930 0.613611 -5.008349 -13.933378 0.000000 0.000000 0.000000 4.216057 22.232528 -8.691566 -6.126906 -14.550023 45.488647 -0.713745 7.431319 -15.187314 -1.405206 7.493428 -21.188027 1.982922 1.244613 11.983254 2.095335 1.885551 3.411728 0.792814 0.893796 -3.150457 -0.365191 6.527155 -6.942301 -0.923051 8.849356 6.725494 0.213825 4.337176 3.418985 0.000000 0.000000 0.000000 8.873718 -8.943848 -24.892396 153.352969 -37.839433 110.717829 29.418153 2.117065 -17.339056 0.000000 0.000000 0.000000 -7.125000 0.000000 0.000000 1.472940 49.693348 -0.170762 0.000000 0.000000 0.000000 -19.743764 -17.420262 47.330135 -144.143295 -45.409805 -104.578214 -23.261952 -9.243081 -6.743034 0.000000 0.000000 0.000000 7.125000 0.000000 0.000000 2.569650 22.648508 1.383333
4.955935 17.694452 -2.964387 8.176295 -50.611907 -8.862534 0.000000 0.000000 0.000000 -10.595390 -4.568492 -21.041713 6.608563 14.992992 47.377550 0.378486 -0.235232 -11.567285 1.834227 -8.496683 -24.242691 0.000000 0.000000 0.000000 1.683564 21.044400 -7.090263 -8.590979 -16.536181 54.662940 -1.062513 0.792513 -19.237081 -0.757538 5.556318 -15.502948 0.689322 0.949442 10.760816 2.135874 1.337993 3.204544 1.656230 0.632902 -2.727548 -0.703255 6.453737 -5.417468 1.464799 8.570484 8.591041 1.009437 4.275764 3.639998 0.000000 0.000000 0.000000 19.643941 -18.749524 -23.072363 156.525452 -34.603601 112.593936 31.381217 -2.803704 -18.924688 0.000000 0.000000 0.000000 -7.125000 0.000000 0.000000 3.255624 51.831858 -0.548548 0.000000 0.000000 0.000000 -20.938678 -25.184001 42.195890 -153.067272 -38.111839 -110.541233 -24.072588 -17.049978 -6.202868 0.000000 0.000000 0.000000 7.125000 0.000000 0.000000 1.964223 23.191092 1.030217
4.992108 16.822879 -3.057120 13.376756 -49.302084 -16.015698 0.000000 0.000000 0.000000 -12.435508 -3.793088 -21.581398 8.509385 16.480288 54.375599 0.712949 -8.715622 -15.337024 1.736177 -8.293325 -23.608681 0.000000 0.000000 0.000000 -0.725566 20.702987 -4.239811 -10.632527 -17.750049 61.581799 -1.924126 2.620665 -25.544170 -2.413025 9.677850 -27.939813 -3.856536 1.555527 12.262251 0.728144 1.545985 3.786116 2.708904 0.736723 -3.023141 -3.177300 5.805627 -3.836720 5.940540 7.542116 6.990241 2.718871 3.855933 2.541886 0.000000 0.000000 0.000000 30.392638 -31.835867 -18.372714 156.248225 -34.900658 112.435944 30.698173 -5.558707 -17.763292 0.000000 0.000000 0.000000 -7.125000 0.000000 0.000000 2.704578 50.394774 -0.362324 0.000000 0.000000 0.000000 -20.932174 -32.564866 35.552178 -157.580853 -33.447240 -113.184443 -23.234784 -22.663494 -5.375228 0.000000 0.000000 0.000000 7.125000 0.000000 0.000000 2.573299 24.133458 1.296374
4.964367 16.630188 -3.464920 11.175627 -49.150176 -14.682075 0.000000 0.000000 0.000000 -9.613839 -6.351888 -22.455181 9.019328 16.819874 56.156551 0.770991 -7.919513 -15.790360 1.150486 -6.807189 -19.146686 0.000000 0.000000 0.000000 2.292084 17.985949 -7.561524 -11.904631 -18.350054 65.686352 -2.333337 -3.017639 -30.064764 -2.430827 9.709506 -28.042300 -3.247495 2.014101 12.090773 0.600136 2.224077 4.266056 2.142347 1.054874 -2.453405 -5.108131 5.456416 -1.861380 7.202049 7.029849 7.126360 3.395062 3.558082 2.146663 0.000000 0.000000 0.000000 32.740353 -41.134554 -18.323836 155.095475 -36.106249 111.766431 30.643468 -4.323105 -18.345124 0.000000 0.000000 0.000000 -7.125000 0.000000 0.000000 2.572217 51.039480 -0.383424 0.000000 0.000000 0.000000 -18.645897 -36.083604 35.249820 -158.845256 -32.008527 -113.868263 -25.361663 -28.264961 -8.173412 0.000000 0.000000 0.000000 7.125000 0.000000 0.000000 1.081524 20.949054 0.623483
4.837206 17.253043 -4.074877 9.753852 -48.744090 -11.444948 0.000000 0.000000 0.000000 -7.781840 -9.932607 -21.615461 7.096680 15.411359 49.236647 0.286182 -0.389106 -9.960420 2.320311 -9.503617 -27.383813 0.000000 0.000000 0.000000 3.099513 17.447107 -9.658535 -10.528425 -17.695675 61.239273 -1.494007 1.539554 -22.665614 -2.394322 9.643147 -27.828584 -3.281223 2.020652 10.787791 -0.405745 2.256113 4.064158 1.147623 1.075059 -1.917355 -5.124288 5.979673 0.334457 7.764178 7.421430 10.376827 3.614330 3.715889 2.785482 0.000000 0.000000 0.000000 31.760906 -44.294117 -21.130016 155.283070 -35.913227 111.876686 30.700298 -3.557268 -17.871951 0.000000 0.000000 0.000000 -7.125000 0.000000 0.000000 2.692522 50.516814 -0.366091 0.000000 0.000000 0.000000 -14.138717 -38.732754 37.776402 -158.767169 -32.099148 -113.826806 -28.972704 -27.579612 -6.782759 0.000000 0.000000 0.000000 7.125000 0.000000 0.000000 -1.612491 22.238542 -0.882881
4.793540 17.951796 -4.597903 6.896432 -49.371936 -6.446775 0.000000 0.000000 0.000000 -5.133594 -13.482417 -19.925833 5.266171 13.677430 41.960386 0.064827 -0.398415 -4.713857 0.980675 -6.302617 -17.665411 0.000000 0.000000 0.000000 2.689296 16.962619 -11.609107 -8.102675 -16.193400 52.930246 -0.255960 10.077179 -10.715489 -1.786979 8.407052 -23.957712 -1.945664 1.847902 9.776761 -0.530641 2.194670 3.703959 0.302827 1.059010 -1.683429 -6.125376 6.483432 1.700265 7.567743 7.928041 12.805577 3.764945 3.869352 3.303224 0.000000 0.000000 0.000000 31.357711 -45.024566 -20.783228 155.988200 -35.176597 112.286631 31.310886 -3.331137 -17.388326 0.000000 0.000000 0.000000 -7.125000 0.000000 0.000000 3.370158 50.080145 -0.423658 0.000000 0.000000 0.000000 -15.868129 -43.925786 34.545955 -159.699821 -31.002329 -114.314821 -33.126325 -27.191106 -5.633167 0.000000 0.000000 0.000000 7.125000 0.000000 0.000000 -4.739185 23.267778 -2.489902
4.720624 17.979951 -5.002273 3.939570 -49.727207 -3.196240 0.000000 0.000000 0.000000 -4.895708 -11.697935 -20.847841 7.589908 15.806785 51.067602 0.016440 -4.591102 -3.782131 1.365630 -7.382822 -20.860582 0.000000 0.000000 0.000000 5.972260 19.329680 -8.245353 -7.181837 -15.483086 49.558565 -1.085542 -1.531642 -20.307426 -1.280094 7.162164 -20.200119 -0.726678 1.473465 8.191229 -0.466488 1.844035 3.361491 -0.237745 0.897101 -1.123221 -6.119801 6.663146 1.121106 7.829286 7.906947 17.669275 3.671648 3.847973 4.510221 0.000000 0.000000 0.000000 32.182950 -45.190448 -19.461907 156.431993 -34.704082 112.540815 32.991133 -1.629160 -17.880955 0.000000 0.000000 0.000000 -7.125000 0.000000 0.000000 5.038642 50.950966 -0.740429 0.000000 0.000000 0.000000 -19.549715 -48.018130 30.055717 -160.288889 -30.292673 -114.615136 -35.497986 -28.116515 -5.389561 0.000000 0.000000 0.000000 7.125000 0.000000 0.000000 -6.500612 23.378535 -3.408937
4.540050 17.292596 -5.411638 4.063791 -48.706034 -4.206280 0.000000 0.000000 0.000000 -6.655271 -7.275250 -20.817694 10.410536 17.634078 60.851449 0.465747 -4.733815 -12.131072 1.998150 -8.862074 -25.364957 0.000000 0.000000 0.000000 7.789656 21.004793 -3.347029 -7.461948 -15.708817 50.600414 -2.176182 1.289222 -27.562281 -2.267671 9.401598 -27.060632 -2.548637 1.188316 8.130788 -0.843540 1.317237 2.551169 0.434430 0.642027 -1.955543 -5.828439 5.897247 -1.795579 7.996982 6.631825 24.743777 4.023652 3.192526 7.343168 0.000000 0.000000 0.000000 30.718683 -41.825649 -21.877894 157.919818 -33.067113 113.370320 34.438417 1.789882 -18.304036 0.000000 0.000000 0.000000 -7.125000 0.000000 0.000000 6.517016 51.721168 -1.084515 0.000000 0.000000 0.000000 -19.285590 -48.071136 30.022518 -160.804937 -29.660294 -114.872948 -34.923355 -24.278234 -5.510618 0.000000 0.000000 0.000000 7.125000 0.000000 0.000000 -6.067603 23.277404 -3.193165
